<svg width="16" height="16" viewBox="0 0 16 16" fill="none" xmlns="http://www.w3.org/2000/svg">
<g clip-path="url(#clip0_110_13)">
<path d="M11.3333 1.99999C11.5084 1.8249 11.7163 1.686 11.9451 1.59124C12.1738 1.49648 12.419 1.44771 12.6667 1.44771C12.9143 1.44771 13.1595 1.49648 13.3883 1.59124C13.617 1.686 13.8249 1.8249 14 1.99999C14.1751 2.17509 14.314 2.38296 14.4087 2.61173C14.5035 2.8405 14.5523 3.0857 14.5523 3.33333C14.5523 3.58095 14.5035 3.82615 14.4087 4.05492C14.314 4.28369 14.1751 4.49156 14 4.66666L5 13.6667L1.33333 14.6667L2.33333 11L11.3333 1.99999Z" stroke="#999999" stroke-width="1.5" stroke-linecap="round" stroke-linejoin="round"/>
</g>
<defs>
<clipPath id="clip0_110_13">
<rect width="16" height="16" fill="white"/>
</clipPath>
</defs>
</svg>
