<svg width="16" height="16" viewBox="0 0 12 10" fill="none" xmlns="http://www.w3.org/2000/svg">
<path d="M7.23711 2.0121L7.23727 2.01194C7.39979 1.84935 7.59274 1.72037 7.80511 1.63237C8.01749 1.54438 8.24512 1.49908 8.475 1.49908C8.70488 1.49908 8.93251 1.54438 9.14489 1.63237C9.35726 1.72037 9.55021 1.84935 9.71273 2.01194L9.71306 2.01227C9.87565 2.17478 10.0046 2.36774 10.0926 2.58011C10.1806 2.79249 10.2259 3.02012 10.2259 3.25C10.2259 3.47988 10.1806 3.70751 10.0926 3.91988C10.0046 4.13226 9.87565 4.32521 9.71306 4.48773L9.71289 4.48789L9.18289 5.01789L6 8.20078L2.81711 5.01789L2.28711 4.48789C1.9588 4.15958 1.77435 3.7143 1.77435 3.25C1.77435 2.7857 1.9588 2.34041 2.28711 2.0121C2.61542 1.68379 3.0607 1.49935 3.525 1.49935C3.9893 1.49935 4.43458 1.68379 4.76289 2.0121L5.29289 2.5421C5.68342 2.93263 6.31658 2.93263 6.70711 2.5421L7.23711 2.0121Z" fill="white" stroke="white" stroke-width="2" stroke-linecap="round" stroke-linejoin="round"/>
</svg>
