<svg width="24" height="24" viewBox="0 0 24 24" fill="none" xmlns="http://www.w3.org/2000/svg">
<mask id="mask0_480_331" style="mask-type:alpha" maskUnits="userSpaceOnUse" x="0" y="0" width="24" height="24">
<rect width="24" height="24" fill="#D9D9D9"/>
</mask>
<g mask="url(#mask0_480_331)">
<path d="M3.7344 5.57406L3.73451 5.57393C4.15673 5.1228 4.66018 4.9 5.25 4.9H7.5H7.6V4.8C7.6 3.50472 8.03142 2.39936 8.89483 1.47839C9.75805 0.557623 10.7914 0.1 12 0.1C13.2086 0.1 14.2419 0.557623 15.1052 1.47839C15.9686 2.39936 16.4 3.50472 16.4 4.8V4.9H16.5H18.75C19.3398 4.9 19.8437 5.1228 20.2667 5.57399C20.6891 6.02455 20.9 6.56469 20.9 7.2V21.6C20.9 22.2353 20.6891 22.7759 20.2666 23.2273L20.3396 23.2956L20.2667 23.2271C19.8438 23.6776 19.3399 23.9 18.75 23.9H5.25C4.66012 23.9 4.15666 23.6776 3.73445 23.2272C3.31128 22.7758 3.1 22.2353 3.1 21.6V7.2C3.1 6.56474 3.31128 6.02462 3.7344 5.57406ZM3.6615 5.5056C4.10175 5.0352 4.63125 4.8 5.25 4.8H7.4H7.5L3.6615 5.5056ZM5.15 21.6V21.7H5.25H18.75H18.85V21.6V7.2V7.1H18.75H16.5H16.4V7.2V9.6C16.4 9.91683 16.3006 10.1765 16.1042 10.386C15.9073 10.596 15.6664 10.7 15.375 10.7C15.0836 10.7 14.8432 10.596 14.6471 10.3861L14.6468 10.3859C14.4497 10.1764 14.35 9.91672 14.35 9.6V7.2V7.1H14.25H9.75H9.65V7.2V9.6C9.65 9.91683 9.55058 10.1765 9.35417 10.386C9.15728 10.596 8.9164 10.7 8.625 10.7C8.33361 10.7 8.09318 10.596 7.89707 10.3861L7.89683 10.3859C7.69973 10.1764 7.6 9.91672 7.6 9.6V7.2V7.1H7.5H5.25H5.15V7.2V21.6ZM9.65 4.8V4.9H9.75H14.25H14.35V4.8C14.35 4.11531 14.1207 3.52585 13.6626 3.03721C13.2036 2.5476 12.6477 2.3 12 2.3C11.3523 2.3 10.7968 2.54761 10.3385 3.03727C9.87969 3.52588 9.65 4.11531 9.65 4.8Z" fill="#5736B5" stroke="white" stroke-width="0.2"/>
</g>
</svg>
