<svg width="24" height="24" viewBox="0 0 24 24" fill="none" xmlns="http://www.w3.org/2000/svg">
<path d="M21.1198 10.0799C21.1198 16.7999 12.4798 22.5599 12.4798 22.5599C12.4798 22.5599 3.83984 16.7999 3.83984 10.0799C3.83984 7.78847 4.75013 5.59085 6.37044 3.97054C7.99076 2.35022 10.1884 1.43994 12.4798 1.43994C14.7713 1.43994 16.9689 2.35022 18.5892 3.97054C20.2096 5.59085 21.1198 7.78847 21.1198 10.0799Z" stroke="#5736B5" stroke-width="1.8" stroke-linecap="round" stroke-linejoin="round"/>
<path d="M12.4796 12.96C14.0702 12.96 15.3596 11.6705 15.3596 10.08C15.3596 8.48937 14.0702 7.19995 12.4796 7.19995C10.889 7.19995 9.59961 8.48937 9.59961 10.08C9.59961 11.6705 10.889 12.96 12.4796 12.96Z" stroke="#5736B5" stroke-width="1.8" stroke-linecap="round" stroke-linejoin="round"/>
</svg>
