<svg width="24" height="24" viewBox="0 0 24 24" fill="none" xmlns="http://www.w3.org/2000/svg">
<mask id="mask0_90_65" style="mask-type:alpha" maskUnits="userSpaceOnUse" x="0" y="0" width="24" height="24">
<rect width="24" height="24" fill="#D9D9D9"/>
</mask>
<g mask="url(#mask0_90_65)">
<path d="M10.588 5.41568L10.515 5.34739C10.1051 5.78573 9.9 6.31464 9.9 6.92854V7.02854H10H14H14.1V6.92854C14.1 6.31469 13.8952 5.78581 13.4861 5.34745C13.0761 4.9082 12.5791 4.68568 12 4.68568C11.4209 4.68568 10.9242 4.90821 10.5148 5.34751L10.588 5.41568ZM10.588 5.41568C10.9793 4.99568 11.45 4.78568 12 4.78568C12.55 4.78568 13.021 4.99568 13.413 5.41568C13.782 5.81105 13.977 6.282 13.9981 6.82854H14V6.92854H13.9H10.1H10V6.82854H10.0019C10.023 6.282 10.2184 5.81105 10.588 5.41568ZM4.66105 7.62683L4.66116 7.62671C5.03451 7.22601 5.47909 7.02854 6 7.02854H8H8.1V6.92854C8.1 5.77455 8.48256 4.79021 9.24811 3.96998C10.0135 3.14996 10.9291 2.74282 12 2.74282C13.0709 2.74282 13.9865 3.14996 14.7519 3.96998C15.5174 4.79021 15.9 5.77455 15.9 6.92854V7.02854H16H18C18.5209 7.02854 18.9659 7.22601 19.3399 7.62677C19.7134 8.02698 19.9 8.50667 19.9 9.07139V21.9285C19.9 22.4932 19.7135 22.9732 19.34 23.3742C18.9659 23.7742 18.521 23.9714 18 23.9714H6C5.47903 23.9714 5.03444 23.7742 4.66111 23.3742C4.28687 22.9733 4.1 22.4932 4.1 21.9285V9.07139C4.1 8.50672 4.28687 8.02705 4.66105 7.62683ZM5.9 21.9285V22.0285H6H18H18.1V21.9285V9.07139V8.97139H18H16H15.9V9.07139V11.2143C15.9 11.4948 15.8124 11.724 15.6399 11.9089C15.467 12.0942 15.2558 12.1857 15 12.1857C14.7442 12.1857 14.5335 12.0942 14.3612 11.909L14.361 11.9088C14.1878 11.7239 14.1 11.4947 14.1 11.2143V9.07139V8.97139H14H10H9.9V9.07139V11.2143C9.9 11.4948 9.81245 11.724 9.63989 11.9089C9.46696 12.0942 9.25583 12.1857 9 12.1857C8.74418 12.1857 8.53346 12.0942 8.36122 11.909L8.36099 11.9088C8.18782 11.7239 8.1 11.4947 8.1 11.2143V9.07139V8.97139H8H6H5.9V9.07139V21.9285Z" fill="#5932E6" stroke="white" stroke-width="0.2"/>
</g>
</svg>
