<svg width="24" height="24" viewBox="0 0 24 24" fill="none" xmlns="http://www.w3.org/2000/svg">
<path d="M14.4479 5.75992C15.3856 5.94286 16.2473 6.40145 16.9229 7.07698C17.5984 7.75251 18.057 8.61426 18.2399 9.55192M14.4479 1.91992C16.396 2.13634 18.2127 3.00873 19.5995 4.39385C20.9864 5.77897 21.8611 7.59449 22.0799 9.54232M21.1199 17.2031V20.0831C21.121 20.3505 21.0663 20.6151 20.9591 20.8601C20.852 21.1051 20.6949 21.325 20.4979 21.5057C20.3009 21.6865 20.0683 21.8241 19.8151 21.9097C19.5618 21.9954 19.2934 22.0272 19.0271 22.0031C16.0731 21.6821 13.2355 20.6727 10.7423 19.0559C8.42281 17.582 6.45626 15.6154 4.98234 13.2959C3.35991 10.7915 2.35025 7.94008 2.03514 4.97272C2.01115 4.70725 2.0427 4.43969 2.12778 4.18708C2.21286 3.93447 2.3496 3.70234 2.52931 3.50548C2.70902 3.30861 2.92775 3.15132 3.17158 3.04362C3.4154 2.93592 3.67898 2.88017 3.94554 2.87992H6.82554C7.29143 2.87534 7.7431 3.04032 8.09635 3.34411C8.4496 3.64791 8.68033 4.06979 8.74554 4.53112C8.86709 5.45279 9.09253 6.35774 9.41754 7.22872C9.5467 7.57233 9.57465 7.94576 9.49809 8.30477C9.42152 8.66377 9.24364 8.99331 8.98554 9.25432L7.76634 10.4735C9.13295 12.8769 11.1229 14.8669 13.5263 16.2335L14.7455 15.0143C15.0065 14.7562 15.3361 14.5783 15.6951 14.5018C16.0541 14.4252 16.4275 14.4532 16.7711 14.5823C17.6421 14.9073 18.5471 15.1328 19.4687 15.2543C19.9351 15.3201 20.361 15.555 20.6654 15.9143C20.9699 16.2736 21.1316 16.7323 21.1199 17.2031Z" stroke="#5736B5" stroke-width="1.8" stroke-linecap="round" stroke-linejoin="round"/>
</svg>
