<svg width="12" height="10" viewBox="0 0 12 10" fill="none" xmlns="http://www.w3.org/2000/svg">
<path d="M9.71279 2.01188L9.71312 2.01221C9.87571 2.17472 10.0047 2.36768 10.0927 2.58005C10.1807 2.79242 10.226 3.02005 10.226 3.24994C10.226 3.47982 10.1807 3.70745 10.0927 3.91982C10.0047 4.1322 9.87571 4.32515 9.71312 4.48766L9.71295 4.48783L9.18295 5.01783L6.00006 8.20072L2.81717 5.01783L2.28717 4.48783C1.95886 4.15952 1.77441 3.71424 1.77441 3.24994C1.77441 2.78564 1.95886 2.34035 2.28717 2.01204C2.61548 1.68373 3.06076 1.49929 3.52506 1.49929C3.98936 1.49929 4.43464 1.68373 4.76295 2.01204L5.29295 2.54204C5.68348 2.93257 6.31664 2.93257 6.70717 2.54204L7.23717 2.01204L7.23733 2.01188C7.39985 1.84929 7.5928 1.72031 7.80517 1.63231C8.01755 1.54432 8.24518 1.49902 8.47506 1.49902C8.70494 1.49902 8.93257 1.54432 9.14495 1.63231C9.35732 1.72031 9.55027 1.84929 9.71279 2.01188Z" fill="white" stroke="white" stroke-width="2" stroke-linecap="round" stroke-linejoin="round"/>
</svg>
